<svg xmlns="http://www.w3.org/2000/svg" width="60" height="60" fill="none" viewBox="0 0 60 60"><rect width="5" height="5" x="15" y="25" fill="#FED955" transform="rotate(-180 15 25)"/><rect width="5" height="5" x="15" y="35" fill="#FED955" transform="rotate(-180 15 35)"/><rect width="5" height="5" x="15" y="30" fill="#FED955" transform="rotate(-180 15 30)"/><rect width="5" height="5" x="15" y="40" fill="#FED955" transform="rotate(-180 15 40)"/><rect width="5" height="5" x="35" y="15" fill="#FED955" transform="rotate(-180 35 15)"/><rect width="5" height="5" fill="#FED955" transform="matrix(-1 8.74226e-08 8.7423e-08 1 35 45)"/><rect width="5" height="5" x="40" y="15" fill="#FED955" transform="rotate(-180 40 15)"/><rect width="5" height="5" x="45" y="15" fill="#9695F8" transform="rotate(-180 45 15)"/><rect width="5" height="5" fill="#9695F8" transform="matrix(1 -8.74226e-08 -8.7423e-08 -1 15 15)"/><rect width="5" height="5" fill="#9695F8" transform="matrix(1 -8.74226e-08 -8.7423e-08 -1 45 45)"/><rect width="5" height="5" x="15" y="45" fill="#9695F8" transform="rotate(-180 15 45)"/><rect width="5" height="5" x="40" y="10" fill="#9695F8" transform="rotate(-180 40 10)"/><rect width="5" height="5" x="40" y="5" fill="#5552FD" transform="rotate(-180 40 5)"/><rect width="5" height="5" x="40" y="60" fill="#5552FD" transform="rotate(-180 40 60)"/><rect width="5" height="5" x="40" y="55" fill="#9695F8" transform="rotate(-180 40 55)"/><rect width="5" height="5" x="30" y="10" fill="#9695F8" transform="rotate(-180 30 10)"/><rect width="5" height="5" x="30" y="5" fill="#5552FD" transform="rotate(-180 30 5)"/><rect width="5" height="5" x="30" y="60" fill="#5552FD" transform="rotate(-180 30 60)"/><rect width="5" height="5" x="30" y="55" fill="#9695F8" transform="rotate(-180 30 55)"/><rect width="5" height="5" x="35" y="10" fill="#9695F8" transform="rotate(-180 35 10)"/><rect width="5" height="5" x="35" y="5" fill="#5552FD" transform="rotate(-180 35 5)"/><rect width="5" height="5" x="35" y="60" fill="#5552FD" transform="rotate(-180 35 60)"/><rect width="5" height="5" x="35" y="55" fill="#9695F8" transform="rotate(-180 35 55)"/><rect width="5" height="5" x="25" y="10" fill="#9695F8" transform="rotate(-180 25 10)"/><rect width="5" height="5" x="25" y="5" fill="#5552FD" transform="rotate(-180 25 5)"/><rect width="5" height="5" x="25" y="60" fill="#5552FD" transform="rotate(-180 25 60)"/><rect width="5" height="5" x="25" y="55" fill="#9695F8" transform="rotate(-180 25 55)"/><rect width="5" height="5" x="50" y="20" fill="#9695F8" transform="rotate(-180 50 20)"/><rect width="5" height="5" fill="#9695F8" transform="matrix(1 -8.74226e-08 -8.7423e-08 -1 10 20)"/><rect width="5" height="5" fill="#9695F8" transform="matrix(1 -8.74226e-08 -8.7423e-08 -1 40 50)"/><rect width="5" height="5" x="20" y="50" fill="#9695F8" transform="rotate(-180 20 50)"/><rect width="5" height="5" x="55" y="25" fill="#9695F8" transform="rotate(-180 55 25)"/><rect width="5" height="5" x="10" y="25" fill="#9695F8" transform="rotate(-180 10 25)"/><rect width="5" height="5" x="5" y="25" fill="#5552FD" transform="rotate(-180 5 25)"/><rect width="5" height="5" x="10" y="20" fill="#5552FD" transform="rotate(-180 10 20)"/><rect width="5" height="5" fill="#5552FD" transform="matrix(1 -8.74226e-08 -8.7423e-08 -1 50 20)"/><rect width="5" height="5" x="45" y="55" fill="#5552FD" transform="rotate(-180 45 55)"/><rect width="5" height="5" x="5" y="45" fill="#5552FD" transform="rotate(-90 5 45)"/><rect width="5" height="5" x="15" y="15" fill="#5552FD" transform="rotate(-180 15 15)"/><rect width="5" height="5" fill="#5552FD" transform="matrix(1 -8.74226e-08 -8.7423e-08 -1 45 15)"/><rect width="5" height="5" x="50" y="50" fill="#5552FD" transform="rotate(-180 50 50)"/><rect width="5" height="5" x="10" y="50" fill="#5552FD" transform="rotate(-90 10 50)"/><rect width="5" height="5" x="20" y="10" fill="#5552FD" transform="rotate(-180 20 10)"/><rect width="5" height="5" fill="#5552FD" transform="matrix(1 -8.74226e-08 -8.7423e-08 -1 40 10)"/><rect width="5" height="5" x="55" y="45" fill="#5552FD" transform="rotate(-180 55 45)"/><rect width="5" height="5" x="15" y="55" fill="#5552FD" transform="rotate(-90 15 55)"/><rect width="5" height="5" x="60" y="25" fill="#5552FD" transform="rotate(-180 60 25)"/><rect width="5" height="5" x="55" y="30" fill="#9695F8" transform="rotate(-180 55 30)"/><rect width="5" height="5" x="10" y="30" fill="#9695F8" transform="rotate(-180 10 30)"/><rect width="5" height="5" x="5" y="30" fill="#5552FD" transform="rotate(-180 5 30)"/><rect width="5" height="5" x="60" y="30" fill="#5552FD" transform="rotate(-180 60 30)"/><rect width="5" height="5" x="55" y="35" fill="#9695F8" transform="rotate(-180 55 35)"/><rect width="5" height="5" x="10" y="35" fill="#9695F8" transform="rotate(-180 10 35)"/><rect width="5" height="5" x="5" y="35" fill="#5552FD" transform="rotate(-180 5 35)"/><rect width="5" height="5" x="60" y="35" fill="#5552FD" transform="rotate(-180 60 35)"/><rect width="5" height="5" x="55" y="40" fill="#9695F8" transform="rotate(-180 55 40)"/><rect width="5" height="5" x="10" y="40" fill="#9695F8" transform="rotate(-180 10 40)"/><rect width="5" height="5" x="5" y="40" fill="#5552FD" transform="rotate(-180 5 40)"/><rect width="5" height="5" x="60" y="40" fill="#5552FD" transform="rotate(-180 60 40)"/><rect width="5" height="5" fill="#FED955" transform="matrix(-1 8.74226e-08 8.7423e-08 1 40 45)"/><rect width="5" height="5" x="35" y="25" fill="#FED955" transform="rotate(-180 35 25)"/><rect width="5" height="5" x="35" y="35" fill="#FED955" transform="rotate(-180 35 35)"/><rect width="5" height="5" x="35" y="40" fill="#FED955" transform="rotate(-180 35 40)"/><rect width="5" height="5" x="35" y="20" fill="#FED955" transform="rotate(-180 35 20)"/><rect width="5" height="5" fill="#FED955" transform="matrix(-1 8.74226e-08 8.74229e-08 1 35 40)"/><rect width="5" height="5" x="25" y="35" fill="#FED955" transform="rotate(-180 25 35)"/><rect width="5" height="5" x="25" y="30" fill="#FED955" transform="rotate(-180 25 30)"/><rect width="5" height="5" x="25" y="40" fill="#FED955" transform="rotate(-180 25 40)"/><rect width="5" height="5" x="25" y="20" fill="#FED955" transform="rotate(-180 25 20)"/><rect width="5" height="5" fill="#FED955" transform="matrix(-1 8.74226e-08 8.74229e-08 1 25 40)"/><rect width="5" height="5" x="40" y="35" fill="#FED955" transform="rotate(-180 40 35)"/><rect width="5" height="5" x="40" y="30" fill="#FED955" transform="rotate(-180 40 30)"/><rect width="5" height="5" x="40" y="40" fill="#FED955" transform="rotate(-180 40 40)"/><rect width="5" height="5" x="40" y="20" fill="#FED955" transform="rotate(-180 40 20)"/><rect width="5" height="5" fill="#FED955" transform="matrix(-1 8.74226e-08 8.74229e-08 1 40 40)"/><rect width="5" height="5" x="30" y="15" fill="#FED955" transform="rotate(-180 30 15)"/><rect width="5" height="5" fill="#FED955" transform="matrix(-1 8.74226e-08 8.7423e-08 1 30 45)"/><rect width="5" height="5" x="25" y="15" fill="#FED955" transform="rotate(-180 25 15)"/><rect width="5" height="5" fill="#FED955" transform="matrix(-1 8.74226e-08 8.7423e-08 1 25 45)"/><rect width="5" height="5" x="30" y="25" fill="#FED955" transform="rotate(-180 30 25)"/><rect width="5" height="5" x="30" y="35" fill="#FED955" transform="rotate(-180 30 35)"/><rect width="5" height="5" x="25" y="25" fill="#5552FD" transform="rotate(-180 25 25)"/><rect width="5" height="5" x="35" y="30" fill="#5552FD" transform="rotate(-180 35 30)"/><rect width="5" height="5" x="45" y="25" fill="#5552FD" transform="rotate(-180 45 25)"/><rect width="5" height="5" x="45" y="35" fill="#5552FD" transform="rotate(-180 45 35)"/><rect width="5" height="5" x="45" y="30" fill="#5552FD" transform="rotate(-180 45 30)"/><rect width="5" height="5" x="45" y="40" fill="#5552FD" transform="rotate(-180 45 40)"/><rect width="5" height="5" x="45" y="20" fill="#5552FD" transform="rotate(-180 45 20)"/><rect width="5" height="5" fill="#5552FD" transform="matrix(-1 8.74226e-08 8.74229e-08 1 45 40)"/><rect width="5" height="5" x="20" y="25" fill="#5552FD" transform="rotate(-180 20 25)"/><rect width="5" height="5" x="20" y="35" fill="#5552FD" transform="rotate(-180 20 35)"/><rect width="5" height="5" x="20" y="30" fill="#5552FD" transform="rotate(-180 20 30)"/><rect width="5" height="5" x="20" y="40" fill="#5552FD" transform="rotate(-180 20 40)"/><rect width="5" height="5" x="20" y="20" fill="#5552FD" transform="rotate(-180 20 20)"/><rect width="5" height="5" fill="#5552FD" transform="matrix(-1 8.74226e-08 8.74229e-08 1 20 40)"/><rect width="5" height="5" x="40" y="25" fill="#5552FD" transform="rotate(-180 40 25)"/><rect width="5" height="5" x="30" y="30" fill="#5552FD" transform="rotate(-180 30 30)"/><rect width="5" height="5" x="30" y="40" fill="#FED955" transform="rotate(-180 30 40)"/><rect width="5" height="5" x="30" y="20" fill="#FED955" transform="rotate(-180 30 20)"/><rect width="5" height="5" fill="#FED955" transform="matrix(-1 8.74226e-08 8.74229e-08 1 30 40)"/><rect width="5" height="5" x="50" y="25" fill="#FED955" transform="rotate(-180 50 25)"/><rect width="5" height="5" x="50" y="35" fill="#FED955" transform="rotate(-180 50 35)"/><rect width="5" height="5" x="50" y="30" fill="#FED955" transform="rotate(-180 50 30)"/><rect width="5" height="5" x="50" y="40" fill="#FED955" transform="rotate(-180 50 40)"/></svg>