<svg xmlns="http://www.w3.org/2000/svg" xmlns:svg="http://www.w3.org/2000/svg" width="505.714" height="505.714" viewBox="0 0 133.804 133.804"><g><path style="fill:none;stroke:#000;stroke-width:5.29167;stroke-linecap:round;stroke-linejoin:round;stroke-miterlimit:4;stroke-dasharray:none" d="M 169.25595,148.5 A 64.255951,64.255951 0 0 1 105,212.75595 64.255951,64.255951 0 0 1 40.74405,148.5 64.255951,64.255951 0 0 1 105,84.244051 64.255951,64.255951 0 0 1 169.25595,148.5 Z" transform="translate(-38.098215,-81.598216)"/><path style="fill:none;stroke:#000;stroke-width:5.29167;stroke-linecap:round;stroke-linejoin:round;stroke-miterlimit:4;stroke-dasharray:none" d="m 157.16072,163.61905 a 40.82143,40.82143 0 0 1 -40.82143,40.82143 40.82143,40.82143 0 0 1 -40.821432,-40.82143 40.82143,40.82143 0 0 1 40.821432,-40.82143 40.82143,40.82143 0 0 1 40.82143,40.82143 z" transform="translate(-38.098215,-81.598216)"/><path style="fill:none;stroke:#000;stroke-width:5.29167;stroke-linecap:round;stroke-linejoin:round;stroke-miterlimit:4;stroke-dasharray:none" d="M 133.72619,154.54762 A 25.702381,25.702381 0 0 1 108.0238,180.25 25.702381,25.702381 0 0 1 82.321426,154.54762 25.702381,25.702381 0 0 1 108.0238,128.84524 a 25.702381,25.702381 0 0 1 25.70239,25.70238 z" transform="translate(-38.098215,-81.598216)"/></g><metadata id="metadata893"/></svg>